<svg xmlns="http://www.w3.org/2000/svg" enable-background="new 0 0 16 16" viewBox="0 0 16 16"><g display="none"><polyline fill="none" stroke="#000" stroke-linecap="round" stroke-linejoin="round" stroke-miterlimit="10" points="11.5 10.5 9.5 15.5 6.5 9.5 .5 6.5 15.5 .5 12.2 8.8"/><polyline fill="none" stroke="#000" stroke-linecap="round" stroke-linejoin="round" stroke-miterlimit="10" points="5.5 9 5.5 12.5 7.5 11.5"/><line x1="6.5" x2="15" y1="9.5" y2="1" fill="none" stroke="#000" stroke-linecap="round" stroke-linejoin="round" stroke-miterlimit="10"/></g><path d="M15.9,0.1C15.7,0,15.5,0,15.3,0l-15,6C0.1,6.1,0,6.3,0,6.5c0,0.2,0.1,0.4,0.3,0.5L5,9.3v3.2
		c0,0.2,0.1,0.3,0.2,0.4C5.3,13,5.4,13,5.5,13c0.1,0,0.2,0,0.2-0.1l1.6-0.8l1.8,3.6C9.1,15.9,9.3,16,9.5,16c0,0,0,0,0,0
		c0.2,0,0.4-0.1,0.4-0.3l2-5c0.1-0.3,0-0.5-0.3-0.6c-0.3-0.1-0.5,0-0.6,0.3l-1.6,4L7.1,9.6l7-7l-2.4,6c-0.1,0.3,0,0.5,0.3,0.6
		c0.3,0.1,0.5,0,0.6-0.3L16,0.7C16,0.5,16,0.3,15.9,0.1z M13.4,1.9l-7,7L1.7,6.6L13.4,1.9z M6,11.7V9.8l0.1,0.1l0.7,1.4L6,11.7z" display="none"/><g display="none"><polygon fill="#e4f5f7" points="14.5 2.5 14.5 2 13.5 2 13.5 2.9 2.3 7.4 6.5 9.5 9.5 15.5 14.7 2.4"/><polyline fill="#bfdadd" points="5.5 9 5.5 12.5 7.5 11.5"/><path fill="#3e3643" d="M15.9,0.1C15.7,0,15.5,0,15.3,0l-15,6C0.1,6.1,0,6.3,0,6.5c0,0.2,0.1,0.4,0.3,0.5L5,9.3v3.2
			c0,0.2,0.1,0.3,0.2,0.4C5.3,13,5.4,13,5.5,13c0.1,0,0.2,0,0.2-0.1l1.6-0.8l1.8,3.6C9.1,15.9,9.3,16,9.5,16c0,0,0,0,0,0
			c0.2,0,0.4-0.1,0.4-0.3l2-5c0.1-0.3,0-0.5-0.3-0.6c-0.3-0.1-0.5,0-0.6,0.3l-1.6,4L7.1,9.6l7-7l-2.4,6c-0.1,0.3,0,0.5,0.3,0.6
			c0.3,0.1,0.5,0,0.6-0.3L16,0.7C16,0.5,16,0.3,15.9,0.1z M13.4,1.9l-7,7L1.7,6.6L13.4,1.9z M6,11.7V9.8l0.1,0.1l0.7,1.4L6,11.7z"/></g><g display="none"><path fill="#cfd3d4" d="M5.5,13c-0.1,0-0.2,0-0.3-0.1C5.1,12.8,5,12.7,5,12.5V9c0-0.2,0.1-0.3,0.2-0.4c0.1-0.1,0.3-0.1,0.5,0l1,0.5
				c0.1,0,0.2,0.1,0.2,0.2l1,2c0.1,0.2,0,0.5-0.2,0.7l-2,1C5.7,13,5.6,13,5.5,13z"/><path fill="#f0f0f0" d="M9.5,16c-0.2,0-0.4-0.1-0.4-0.3L6.1,9.9L0.3,6.9C0.1,6.9,0,6.7,0,6.5C0,6.3,0.1,6.1,0.3,6l15-6
				c0.2-0.1,0.4,0,0.5,0.1S16,0.5,16,0.7l-6,15C9.9,15.9,9.7,16,9.5,16C9.5,16,9.5,16,9.5,16z"/><path fill="#cfd3d4" d="M16,0.7L16,0.7l-9.6,9.6L6.1,9.9L5.7,9.6l9.6-9.6l0.1,0c0.2-0.1,0.4,0,0.5,0.1C16,0.3,16,0.5,16,0.7z"/></g><g display="none"><path fill="#3e5959" d="M5.5,13c-0.1,0-0.2,0-0.3-0.1C5.1,12.8,5,12.7,5,12.5V9h1v2.7l1.3-0.6l0.4,0.9l-2,1C5.7,13,5.6,13,5.5,13z"/><rect width="12" height="1" x="4.7" y="4.8" fill="#3e5959" transform="rotate(-45.001 10.75 5.25)"/><path fill="#1689fc" d="M9.5,16c-0.2,0-0.4-0.1-0.4-0.3L6.1,9.9L0.3,6.9C0.1,6.9,0,6.7,0,6.5C0,6.3,0.1,6.1,0.3,6l15-6
				c0.2-0.1,0.4,0,0.5,0.1S16,0.5,16,0.7l-3.3,8.3c-0.1,0.3-0.4,0.4-0.6,0.3c-0.3-0.1-0.4-0.4-0.3-0.6l2.9-7.2L1.7,6.6l5,2.5
				c0.1,0,0.2,0.1,0.2,0.2l2.5,5l1.6-4c0.1-0.3,0.4-0.4,0.6-0.3c0.3,0.1,0.4,0.4,0.3,0.6l-2,5C9.9,15.9,9.7,16,9.5,16
				C9.5,16,9.5,16,9.5,16z"/></g><polygon fill="#00ecce" points="15.5 .5 .5 6.5 6.5 9.5 9.5 15.5"/><path fill="#01a28e" d="M15.9,0.1C15.7,0,15.5,0,15.3,0l-15,6C0.1,6.1,0,6.3,0,6.5c0,0.2,0.1,0.4,0.3,0.5L5,9.3v3.2
			c0,0.2,0.1,0.3,0.2,0.4C5.3,13,5.4,13,5.5,13c0.1,0,0.2,0,0.2-0.1l1.6-0.8l1.8,3.6C9.1,15.9,9.3,16,9.5,16c0,0,0,0,0,0
			c0.2,0,0.4-0.1,0.4-0.3l2-5c0.1-0.3,0-0.5-0.3-0.6c-0.3-0.1-0.5,0-0.6,0.3l-1.6,4L7.1,9.6l7-7l-2.4,6c-0.1,0.3,0,0.5,0.3,0.6
			c0.3,0.1,0.5,0,0.6-0.3L16,0.7C16,0.5,16,0.3,15.9,0.1z M13.4,1.9l-7,7L1.7,6.6L13.4,1.9z M6,11.7V9.8l0.1,0.1l0.7,1.4L6,11.7z"/></svg>